<?xml version="1.0" encoding="UTF-8" standalone="no"?>
<svg
   xmlns:dc="http://purl.org/dc/elements/1.1/"
   xmlns:cc="http://creativecommons.org/ns#"
   xmlns:rdf="http://www.w3.org/1999/02/22-rdf-syntax-ns#"
   xmlns:svg="http://www.w3.org/2000/svg"
   xmlns="http://www.w3.org/2000/svg"
   xmlns:sodipodi="http://sodipodi.sourceforge.net/DTD/sodipodi-0.dtd"
   xmlns:inkscape="http://www.inkscape.org/namespaces/inkscape"
   version="1.1"
   x="0px"
   y="0px"
   viewBox="0 0 100 100"
   enable-background="new 0 0 100 100"
   xml:space="preserve"
   id="svg45"
   sodipodi:docname="north1.svg"
   inkscape:version="0.92.1 r15371"
   width="100"
   height="100"><metadata
     id="metadata51"><rdf:RDF><cc:Work
         rdf:about=""><dc:format>image/svg+xml</dc:format><dc:type
           rdf:resource="http://purl.org/dc/dcmitype/StillImage" /><dc:title></dc:title></cc:Work></rdf:RDF></metadata><defs
     id="defs49" /><sodipodi:namedview
     pagecolor="#ffffff"
     bordercolor="#666666"
     borderopacity="1"
     objecttolerance="10"
     gridtolerance="10"
     guidetolerance="10"
     inkscape:pageopacity="0"
     inkscape:pageshadow="2"
     inkscape:window-width="1366"
     inkscape:window-height="705"
     id="namedview47"
     showgrid="false"
     inkscape:zoom="1.888"
     inkscape:cx="50"
     inkscape:cy="62.5"
     inkscape:window-x="-8"
     inkscape:window-y="-8"
     inkscape:window-maximized="1"
     inkscape:current-layer="svg45" /><path
     d="m 39.386661,84.258051 1.744,0.529 c 0.002,0.002 0.003,0 0.005,0.002 10e-4,0 10e-4,0 10e-4,0 l 2.331,0.543 c 0.002,0 0.004,0 0.006,0 0,0 0,0 10e-4,0 l 2.36,0.393 c 0.002,0 0.004,0 0.005,0 10e-4,0 10e-4,0 0.002,0 l 2.379,0.234 c 0.004,0 0.007,0 0.01,0 h 0.001 l 2.388,0.078 c 10e-4,0 0.002,0 0.004,0 0,0 0.002,0 0.003,0 l 2.386,-0.078 v 0 c 0.004,0 0.008,0 0.012,0 l 2.381,-0.234 v 0 c 0.002,0 0.004,0 0.006,0 l 2.359,-0.393 v 0 c 0.002,0 0.004,0 0.006,0 l 2.332,-0.543 v 0 c 0.002,-0.002 0.004,0 0.006,-0.002 l 1.744,-0.529 13.064,13.064996 c 0.002,0.002 0.004,0.002 0.006,0.002 0.02,0.018 0.041,0.027 0.066,0.027 0.008,0 0.016,-0.002 0.025,-0.004 0.008,-0.002 0.012,-0.01 0.02,-0.016 0.008,-0.004 0.018,-0.002 0.025,-0.01 0.004,-0.004 0.002,-0.008 0.004,-0.012 0.01,-0.012 0.012,-0.021 0.016,-0.035 0.002,-0.012 0.006,-0.023 0.004,-0.037 0,-0.004 0.004,-0.008 0.002,-0.012 l -4.496,-17.120996 0.393,-0.242 v -0.002 c 0.002,-0.002 0.004,-0.002 0.004,-0.002 l 1.945,-1.396 c 0,0 0,-0.002 0.002,-0.002 0,0 0.002,0 0.004,-0.002 l 1.848,-1.516 c 0.002,0 0,-0.002 0.002,-0.002 0,-0.002 0.002,0 0.004,-0.002 l 1.746,-1.635 c 0,-0.002 0,-0.004 0,-0.004 0.002,0 0.004,0 0.004,-0.002 l 1.635,-1.746 c 0.002,0 0.002,-0.002 0.002,-0.002 0.002,-0.002 0.002,-0.002 0.004,-0.002 l 1.516,-1.852 c 0.002,0 0,-0.002 0.002,-0.004 h 0.002 l 1.395,-1.943 c 0.002,-0.002 0,-0.004 0.002,-0.004 0,-0.002 0.002,-0.002 0.002,-0.002 l 1.264,-2.033 v -0.002 c 0,-0.002 0.002,-0.002 0.002,-0.004 l 1.129,-2.109 c 0,-0.002 0,-0.002 0,-0.002 0,-0.002 0.002,-0.002 0.002,-0.004 l 0.988,-2.18 v -0.002 c 0,-0.002 0.002,-0.002 0.002,-0.004 l 0.842,-2.236 c 0,-0.002 0,-0.002 0,-0.004 l 0.002,-0.002 0.695,-2.291 c 0,-0.002 0,-0.002 0,-0.004 0,-0.002 0.002,-0.002 0.002,-0.004 l 0.543,-2.326 c 0,-0.002 0,-0.002 0,-0.004 0,0 0,-0.002 0.002,-0.002 l 0.391,-2.363 -0.002,-0.002 c 0,-0.002 0.002,-0.002 0.002,-0.004 l 0.234,-2.38 c 0,0 -0.002,-0.002 -0.002,-0.003 0,-10e-4 0.002,-10e-4 0.002,-0.003 l 0.078,-2.392 c 0,-0.001 0,-0.002 0,-0.003 0,-0.002 0,-0.002 0,-0.004 l -0.037,-1.123 h 6.898 c 0.055,0 0.1,-0.045 0.1,-0.1 v -0.348 c 0,-0.056 -0.045,-0.101 -0.1,-0.101 h -6.916 l -0.023,-0.72 c 0,-10e-4 -0.002,-0.002 -0.002,-0.002 0,-0.002 0.002,-0.003 0.002,-0.004 l -0.234,-2.381 c 0,-0.002 -0.002,-0.002 -0.002,-0.004 0,-0.002 0.002,-0.002 0.002,-0.004 l -0.391,-2.359 c -0.002,-0.002 -0.002,-0.002 -0.002,-0.004 v -0.002 l -0.543,-2.33 c 0,-10e-4 -0.002,-0.002 -0.002,-0.002 0,-0.002 0,-0.003 0,-0.004 l -0.695,-2.289 c 0,-0.002 -0.002,-0.002 -0.002,-0.004 v -0.002 l -0.842,-2.24 c 0,0 -0.002,-10e-4 -0.002,-0.002 0,-0.002 0,-0.002 0,-0.004 l -0.988,-2.178 c 0,-0.002 -0.002,-0.002 -0.002,-0.004 v -0.002 l -1.129,-2.111 c 0,-0.002 -0.002,-0.002 -0.002,-0.003 0,-10e-4 0,-0.003 0,-0.003 l -1.264,-2.029 c 0,-0.002 -0.002,-0.002 -0.002,-0.002 -0.002,-0.002 0,-0.004 -0.002,-0.004 l -1.395,-1.945 c 0,-0.002 -0.002,-0.001 -0.002,-0.002 -0.002,-10e-4 0,-0.002 -0.002,-0.004 l -1.516,-1.85 c -0.002,0 -0.004,0 -0.004,-0.002 0,0 0,-0.002 -0.002,-0.002 l -1.635,-1.746 c -0.002,-0.002 -0.002,-0.001 -0.004,-0.002 0,-0.001 0,-0.002 0,-0.004 l -1.746,-1.635 c -0.002,0 -0.004,0 -0.004,0 -0.002,-0.002 0,-0.003 -0.002,-0.004 l -1.848,-1.518 c -0.002,0 -0.004,0 -0.004,0 -0.002,-0.002 -0.002,-0.003 -0.002,-0.004 l -1.945,-1.395 h -0.002 c -0.002,-0.002 -0.002,-0.002 -0.002,-0.004 l -2.033,-1.262 c 0,0 -0.002,0 -0.004,0 0,0 0,-0.002 -0.002,-0.002 l -2.109,-1.129 c 0,-0.002 -0.002,0 -0.004,-0.001 0,-10e-4 0,-0.003 -0.002,-0.003 l -2.18,-0.986 c 0,0 -0.002,0 -0.004,0 0,0 0,-0.002 -0.002,-0.002 l -2.238,-0.844 c 0,0 -0.002,0 -0.004,0 0,0 0,-0.002 -0.002,-0.002 l -2.289,-0.693 c -0.002,-10e-4 -0.002,0 -0.004,0 l -0.002,-0.002 -2.332,-0.543 c 0,0 -0.002,0 -0.004,0 0,0 0,-0.002 -0.002,-0.002 l -2.359,-0.391 c -0.002,0 -0.002,0.002 -0.004,0.002 0,-10e-4 -0.002,-0.002 -0.002,-0.002 l -2.381,-0.234 c -0.002,0 -0.004,0 -0.004,0 -0.002,0 -0.002,0 -0.004,0 l -0.1,-0.004 -2.198,-8.3630001 c -10e-4,-0.006 -0.006,-0.008 -0.008,-0.012 -0.004,-0.008 -0.007,-0.015 -0.013,-0.021 -0.005,-0.008 -0.01,-0.012 -0.017,-0.018 -0.008,-0.006 -0.014,-0.01 -0.022,-0.012 -0.005,-0.002 -0.007,-0.008 -0.011,-0.01 -0.005,0 -0.009,0.002 -0.014,0.002 -0.004,0 -0.008,-0.005 -0.012,-0.005 -0.006,0 -0.008,0.005 -0.013,0.005 -0.005,0 -0.009,-0.002 -0.013,-0.002 -0.006,0.002 -0.008,0.008 -0.012,0.01 -0.009,0.002 -0.015,0.006 -0.021,0.012 -0.008,0.006 -0.013,0.01 -0.018,0.018 -0.006,0.007 -0.01,0.014 -0.013,0.021 -0.002,0.004 -0.007,0.006 -0.009,0.012 l -2.193,8.3690001 -0.103,0.004 c -10e-4,0 -0.002,0 -0.003,0 -10e-4,0 -0.002,0 -0.004,0 l -2.379,0.234 c -0.002,0 -0.002,0.001 -0.004,0.002 -10e-4,0 -0.002,-0.002 -0.003,-0.002 l -2.36,0.391 c -0.002,0 -0.002,0.002 -0.003,0.002 -10e-4,0 -0.003,0 -0.004,0 l -2.331,0.543 c -10e-4,0 -0.002,0.002 -0.003,0.002 -10e-4,0 -0.002,-10e-4 -0.003,0 l -2.289,0.693 c -0.002,0 -0.002,0.002 -0.003,0.002 -10e-4,0 -0.003,0 -0.004,0 l -2.237,0.844 c -10e-4,0 -10e-4,0.002 -0.002,0.002 -0.002,0 -0.002,0 -0.004,0 l -2.179,0.986 c -0.001,0 -0.001,0.002 -0.002,0.003 -10e-4,0.001 -0.003,-10e-4 -0.004,0.001 l -2.111,1.129 c -10e-4,0 -10e-4,0.002 -0.002,0.002 -0.001,0 -0.003,0 -0.003,0 l -2.031,1.262 c -0.002,0.002 -0.002,0.002 -0.002,0.004 -0.002,0 -0.003,0 -0.004,0 l -1.945,1.395 c -0.001,0.001 -0.001,0.002 -0.002,0.004 -0.001,0 -0.002,0 -0.004,0 l -1.848,1.518 c 0,10e-4 0,0.002 -0.001,0.004 -10e-4,0 -0.003,0 -0.003,0 l -1.748,1.635 c 0,0.002 0,0.003 -0.001,0.004 -0.001,10e-4 -0.003,0 -0.003,0.002 l -1.636,1.746 c -0.001,0 -0.001,0.002 -0.001,0.002 -0.002,0.002 -0.003,0.002 -0.004,0.002 l -1.517,1.85 c -10e-4,0.002 0,0.003 -10e-4,0.004 0,0.001 -0.002,0 -0.003,0.002 l -1.394,1.945 c 0,0 0,0.002 0,0.003 -10e-4,0.001 -0.003,0.001 -0.004,0.003 l -1.264,2.029 c 0,0 0,0.002 0,0.003 -10e-4,0.001 -0.002,0.001 -0.003,0.003 l -1.127,2.111 c 0,0 0.001,0.002 0,0.002 -0.001,0.002 -0.002,0.002 -0.003,0.004 l -0.988,2.178 c 0,0.002 0,0.002 0,0.004 0,0.001 -0.002,0.002 -0.002,0.002 l -0.842,2.24 c -0.001,0 0,0.002 0,0.002 0,0.002 -0.002,0.002 -0.002,0.004 l -0.695,2.289 c -10e-4,0.001 0,0.002 0,0.004 0,0 -0.002,10e-4 -0.002,0.002 l -0.543,2.33 v 0.002 c 0,0.002 -10e-4,0.002 -0.002,0.004 l -0.385,2.357 c -0.001,0.002 0,0.003 0,0.004 0,0.002 -0.002,0.002 -0.002,0.004 l -0.234,2.381 c 0,0 10e-4,0.002 0,0.003 0,0.001 -10e-4,0.002 -10e-4,0.003 l -0.022,0.72 h -6.917 c -0.056,0 -0.101,0.045 -0.101,0.101 v 0.348 c 0,0.055 0.045,0.1 0.101,0.1 h 6.898 l -0.037,1.123 c 0,0.002 0.002,0.002 0.002,0.004 l -0.002,0.002 0.077,2.393 c 0,10e-4 0.001,0.002 0.001,0.002 10e-4,0.002 0,0.003 0,0.004 l 0.234,2.38 c 0,0.002 0.002,0.002 0.002,0.004 0,0 -10e-4,0.002 0,0.002 l 0.389,2.363 c 10e-4,0 0.002,0.002 0.002,0.002 0,0.002 0,0.002 0,0.004 l 0.543,2.326 c 0,0.002 0.002,0.002 0.002,0.004 0,0.002 -10e-4,0.002 0,0.004 l 0.695,2.291 0.002,0.002 c 0,0.002 0,0.002 0,0.004 l 0.842,2.236 c 0,0.002 0.002,0.002 0.002,0.004 v 0.002 l 0.988,2.18 c 0.001,0.002 0.002,0.002 0.003,0.004 0.001,0 0,0 0,0.002 l 1.127,2.109 c 0.001,0.002 0.002,0.002 0.003,0.004 v 0.002 l 1.264,2.033 c 10e-4,0 0.002,0 0.003,0.002 10e-4,0 0,0.002 10e-4,0.004 l 1.394,1.943 c 10e-4,0 0.003,0 0.003,0 10e-4,0.002 0,0.004 10e-4,0.004 l 1.517,1.852 c 0.001,0 0.002,0 0.004,0.002 0,0 0,0.002 0.001,0.002 l 1.636,1.746 c 0,0.002 0.002,0.002 0.003,0.002 0.001,0 0.001,0.002 0.001,0.004 l 1.748,1.635 c 0,0.002 0.002,0 0.003,0.002 0.001,0 0.001,0.002 0.001,0.002 l 1.848,1.516 c 0.002,0.002 0.003,0.002 0.004,0.002 10e-4,0 10e-4,0.002 0.002,0.002 l 1.945,1.396 c 0.001,0 0.002,0 0.004,0.002 0,0 0,0.002 0.002,0.002 l 0.392,0.242 -4.497,17.120996 c -0.001,0.004 0.003,0.008 0.002,0.012 -0.002,0.014 0.002,0.025 0.006,0.037 0.003,0.014 0.006,0.023 0.014,0.035 0.002,0.004 0.002,0.008 0.005,0.012 0.007,0.008 0.017,0.006 0.024,0.01 0.008,0.006 0.012,0.014 0.021,0.016 0.008,0.002 0.017,0.004 0.025,0.004 0.024,0 0.047,-0.01 0.064,-0.027 0.002,0 0.004,0 0.006,-0.002 z m 8.911,0.633 -2.323,-0.23 -2.294,-0.375 -2.269,-0.531 -1.167,-0.352 0.536,-0.539 0.801,0.242 c 0.002,0.002 0.003,0 0.005,0.002 10e-4,0 10e-4,0 10e-4,0 l 2.22,0.518 c 0.002,0 0.004,0 0.006,0 0,0 0,0 10e-4,0 l 2.247,0.371 c 0.002,0 0.004,0 0.005,0.002 10e-4,0 10e-4,0 0.002,0 l 2.268,0.223 c 0.003,0 0.006,0 0.01,0 v 0 l 2.177,0.074 v 0.668 z m 2.325,-11.867 9.678,9.68 -0.693,0.211 -2.213,0.516 -2.238,0.369 -2.268,0.223 -2.266,0.076 v 0 h -10e-4 l -2.268,-0.076 -2.266,-0.223 -2.238,-0.369 -2.214,-0.516 -0.694,-0.211 z m 9.21,10.73 -2.27,0.531 -2.293,0.375 -2.322,0.23 -2.225,0.072 v -0.668 l 2.174,-0.074 h 0.002 c 0.002,0 0.006,0 0.01,0 l 2.27,-0.223 v 0 c 0.002,-0.002 0.004,-0.002 0.006,-0.002 l 2.246,-0.371 c 0.002,0 0.002,0 0.002,0 0.002,0 0.004,0 0.006,0 l 2.219,-0.518 v 0 c 0.002,-0.002 0.004,0 0.006,-0.002 l 0.801,-0.242 0.535,0.539 z m 26.072,-29.726 -0.381,2.295 -0.527,2.27 -0.678,2.23 -0.818,2.176 -0.961,2.123 -1.098,2.051 -1.229,1.979 -1.357,1.893 -1.479,1.803 -1.592,1.699 -1.699,1.59 -1.801,1.479 -1.975,1.416 -0.184,-0.695 1.746,-1.252 c 0.002,0 0.002,-0.002 0.002,-0.002 0.002,0 0.002,0 0.004,-0.002 l 1.764,-1.443 c 0,0 0,-0.002 0,-0.004 0.002,0 0.004,0 0.004,0 l 1.662,-1.559 c 0.002,-0.002 0,-0.004 0.002,-0.004 0,0 0.002,0 0.002,-0.002 l 1.559,-1.662 c 0,0 0,-0.002 0.002,-0.002 0,-0.002 0.002,-0.002 0.002,-0.002 l 1.445,-1.764 c 0,0 0,-0.002 0,-0.004 0.002,0 0.002,0 0.004,0 l 1.328,-1.852 c 0,-0.002 0,-0.004 0,-0.004 0.002,-0.002 0.002,-0.002 0.004,-0.002 l 1.201,-1.934 v -0.002 c 0.002,-0.002 0.002,-0.002 0.004,-0.004 l 1.074,-2.01 c 0,-0.002 0,-0.002 0,-0.002 0,-0.002 0.002,-0.002 0.002,-0.004 l 0.941,-2.074 c 0,-0.002 0,-0.002 0,-0.004 l 0.002,-0.002 0.803,-2.133 v -0.002 c 0,-0.002 0.002,-0.002 0.002,-0.004 l 0.662,-2.182 -0.002,-0.002 c 0.002,-0.002 0.002,-0.002 0.002,-0.004 l 0.518,-2.219 c 0.002,-0.002 0,-0.002 0,-0.004 l 0.002,-0.002 0.371,-2.248 c 0,-0.002 0,-0.002 0,-0.004 0,-0.002 0.002,-0.002 0.002,-0.004 l 0.223,-2.265 c 0,-0.002 -0.002,-0.002 0,-0.004 0,-0.002 0,-0.002 0,-0.004 l 0.074,-2.277 v -0.002 c 0,-0.002 0,-0.002 0,-0.004 l -0.039,-1.223 v 0 c 0,0 0,0 0,-0.001 v -0.003 0 0 l -0.004,-0.07 h 0.672 l 0.041,1.301 -0.074,2.324 z m -23.82,-6.321 -8.645,-32.913 1.717,0.17 2.238,0.369 2.213,0.516 2.176,0.661 2.123,0.798 2.07,0.939 2.002,1.07 1.93,1.198 1.846,1.323 1.76,1.443 1.656,1.553 1.553,1.656 1.441,1.758 1.324,1.848 1.197,1.928 1.072,2.002 0.938,2.072 0.799,2.121 0.66,2.176 0.516,2.215 0.371,2.238 0.223,2.266 0.02,0.593 z m 23.216,0.548 0.037,1.127 -0.074,2.268 -0.223,2.263 -0.371,2.24 -0.516,2.213 -0.66,2.178 -0.799,2.123 -0.938,2.068 -1.072,2.004 -1.197,1.928 -1.324,1.846 -1.441,1.76 -1.553,1.656 -1.656,1.553 -1.762,1.443 -1.68,1.203 -7.846,-29.873 z m 1.897,-0.2 c 0.002,-0.003 0.006,-0.003 0.008,-0.005 0.008,-0.008 0.008,-0.021 0.012,-0.031 0.006,-0.014 0.016,-0.023 0.016,-0.037 0,-0.002 0,-0.002 0,-0.002 0,-0.001 0,-0.002 0,-0.002 l -0.002,-0.07 h 6.811 v 0.147 z m -1.359,-8.109 0.541,2.324 0.389,2.352 0.234,2.378 0.025,0.808 v 0 0 0.002 c 0,0 0,0 0,10e-4 v 0 l 0.002,0.07 h -0.67 l -0.027,-0.837 c 0,-0.001 0,-0.002 0,-0.003 -0.002,-0.001 0,-0.003 0,-0.003 l -0.229,-2.324 c 0,-0.002 -0.002,-0.002 -0.002,-0.004 0,-10e-4 0,-0.002 0,-0.004 l -0.381,-2.303 c 0,0 -0.002,-10e-4 -0.002,-0.002 0,-0.002 0.002,-0.002 0,-0.004 l -0.529,-2.275 c 0,-10e-4 -0.002,-0.002 -0.002,-0.002 0,-0.002 0,-0.003 0,-0.004 l -0.678,-2.234 c 0,-0.002 -0.002,-0.002 -0.002,-0.004 v -0.002 l -0.824,-2.186 c 0,-0.002 -0.002,-0.002 -0.002,-0.003 0,-10e-4 0,-0.003 0,-0.003 l -0.963,-2.127 c 0,-0.002 -0.002,-0.002 -0.002,-0.004 v -0.002 l -1.102,-2.061 c 0,0 -0.002,-0.001 -0.002,-0.002 0,-10e-4 0,-0.002 0,-0.004 l -1.232,-1.982 c -0.002,-0.002 -0.004,-0.002 -0.004,-0.002 0,-0.002 0,-0.004 0,-0.004 l -1.361,-1.898 c -0.002,-0.002 -0.002,-0.001 -0.004,-0.002 0,-10e-4 0,-0.002 0,-0.004 l -1.482,-1.804 c 0,0 -0.002,0 -0.002,-0.002 -0.002,0 -0.002,-0.002 -0.002,-0.002 l -1.596,-1.703 c 0,-0.002 -0.002,-10e-4 -0.004,-0.002 0,-0.001 0,-0.002 0,-0.004 l -1.707,-1.598 c 0,0 -0.002,0 -0.004,0 0,-0.002 0,-0.003 0,-0.004 l -1.805,-1.48 c 0,0 -0.002,0 -0.004,0 0,-0.002 0,-0.003 -0.002,-0.004 l -1.898,-1.361 c -0.002,0 -0.002,0 -0.004,0 0,-0.002 0,-0.002 -0.002,-0.004 l -1.982,-1.232 c -0.002,-0.002 -0.004,0 -0.004,-10e-4 -0.002,-0.001 -0.002,-0.003 -0.002,-0.003 l -2.059,-1.1 c -0.002,-0.002 -0.002,0 -0.004,-10e-4 -0.002,-0.001 -0.002,-0.003 -0.002,-0.003 l -2.127,-0.963 c -0.002,-0.002 -0.004,0 -0.004,-0.001 -0.002,-10e-4 -0.002,-10e-4 -0.002,-0.003 l -2.188,-0.822 c 0,0 -0.002,0 -0.004,0 0,0 0,-0.002 -0.002,-0.002 l -2.234,-0.678 c -0.002,0 -0.002,0.002 -0.004,0 0,0 -0.002,-0.001 -0.002,-0.002 l -2.273,-0.529 c -0.002,0 -0.002,0 -0.004,0 -0.002,0 -0.002,-0.002 -0.004,-0.002 l -2.303,-0.381 c -0.002,0 -0.002,0.002 -0.004,0.002 0,-10e-4 -0.002,-0.002 -0.002,-0.002 l -2.143,-0.211 -0.18,-0.689 0.035,0.002 2.379,0.234 2.35,0.389 2.326,0.541 2.283,0.692 2.23,0.841 2.176,0.984 2.102,1.125 2.027,1.258 1.939,1.391 1.844,1.516 1.74,1.629 1.631,1.74 1.514,1.846 1.391,1.941 1.26,2.023 1.125,2.104 0.984,2.174 0.838,2.23 z m -71.362,4.676 0.389,-2.352 0.541,-2.324 0.694,-2.285 0.839,-2.23 0.986,-2.174 1.122,-2.102 1.262,-2.027 1.39,-1.939 1.514,-1.846 1.63,-1.74 1.741,-1.629 1.844,-1.516 1.941,-1.391 2.025,-1.258 2.104,-1.125 2.174,-0.984 2.23,-0.842 2.283,-0.691 2.325,-0.541 2.352,-0.389 2.378,-0.234 0.037,-0.002 -0.182,0.689 -2.141,0.211 c -0.002,0 -0.002,10e-4 -0.004,0.002 -10e-4,0 -0.002,-0.002 -0.003,-0.002 l -2.305,0.381 c -10e-4,0 -0.002,0.002 -0.003,0.002 -0.002,0 -0.002,0 -0.004,0 l -2.273,0.529 c -0.001,10e-4 -0.002,0.002 -0.003,0.002 -0.001,0.002 -0.002,0 -0.003,0 l -2.234,0.678 c -0.002,0 -0.002,0.002 -0.003,0.002 -10e-4,0 -0.003,0 -0.003,0 l -2.186,0.822 c -0.002,0.002 -0.002,0.002 -0.003,0.003 -10e-4,0.001 -0.003,-10e-4 -0.004,0.001 l -2.127,0.963 c -10e-4,0 -10e-4,0.002 -0.002,0.003 -10e-4,10e-4 -0.003,-0.001 -0.004,10e-4 l -2.06,1.1 c -10e-4,0 -10e-4,0.002 -0.002,0.003 -0.001,10e-4 -0.002,-0.001 -0.004,10e-4 l -1.982,1.232 c -0.002,0.002 -0.002,0.002 -0.002,0.004 -0.002,0 -0.003,0 -0.004,0 l -1.898,1.361 c -10e-4,0.001 -10e-4,0.002 -0.002,0.004 -10e-4,0 -0.002,0 -0.004,0 l -1.805,1.48 c 0,10e-4 0,0.002 -10e-4,0.004 -0.001,0 -0.003,0 -0.003,0 l -1.705,1.598 c -0.002,0.002 -10e-4,0.003 -0.002,0.004 -0.001,0.001 -0.002,0 -0.003,0.002 l -1.597,1.703 c -10e-4,0 -10e-4,0.002 -0.002,0.002 0,0.002 -0.002,0.002 -0.003,0.002 l -1.481,1.805 c 0,0.002 0,0.003 -0.001,0.004 -0.001,0.002 -0.002,0.001 -0.003,0.002 l -1.359,1.898 c 0,0.001 0,0.002 0,0.004 -10e-4,0 -0.003,0 -0.004,0.002 l -1.234,1.982 c 0,0.002 0,0.003 0,0.004 -10e-4,0.001 -0.002,0.002 -0.003,0.002 l -1.1,2.061 c 0,0 10e-4,0.002 0,0.002 -0.001,0.002 -0.002,0.002 -0.003,0.004 l -0.964,2.127 c 0,0 0.001,0.002 0,0.003 0,10e-4 -0.002,10e-4 -0.002,0.003 l -0.823,2.186 c -10e-4,0 0,0.002 0,0.002 0,0.002 -0.002,0.002 -0.002,0.004 l -0.678,2.234 c -10e-4,0.001 0,0.002 0,0.004 0,0 -0.002,10e-4 -0.002,0.002 l -0.529,2.275 c 0,0.002 0,0.002 0,0.004 0,10e-4 -0.001,0.002 -0.002,0.002 l -0.381,2.303 c 0,0.002 0.002,0.003 10e-4,0.004 0,0.002 -10e-4,0.002 -10e-4,0.004 l -0.23,2.324 c 0,10e-4 0.002,0.002 0.002,0.004 0,0 -0.002,0.001 -0.002,0.002 l -0.027,0.837 h -0.703 c 0.002,-10e-4 0.004,-10e-4 0.005,-0.003 0.007,-0.006 0.007,-0.016 0.011,-0.023 0.008,-0.015 0.019,-0.027 0.02,-0.045 v -0.002 0 0 l 0.025,-0.808 z m 1.727,0.227 0.37,-2.238 0.516,-2.215 0.659,-2.176 0.8,-2.121 0.938,-2.072 1.071,-2.002 1.2,-1.928 1.322,-1.848 1.443,-1.758 1.551,-1.656 1.657,-1.553 1.758,-1.443 1.849,-1.323 1.928,-1.198 2.002,-1.07 2.07,-0.939 2.123,-0.798 2.176,-0.661 2.214,-0.516 2.238,-0.369 1.716,-0.17 -8.645,32.912 h -23.198 l 0.019,-0.593 z m 14.967,33.279 -1.68,-1.203 -1.76,-1.443 -1.657,-1.553 -1.551,-1.656 -1.442,-1.76 -1.322,-1.844 -1.202,-1.932 -1.07,-2.002 -0.938,-2.068 -0.8,-2.123 -0.659,-2.178 -0.516,-2.213 -0.37,-2.24 -0.224,-2.263 -0.074,-2.268 0.037,-1.127 h 23.074 z m 7.9,-30.073 h -23.153 c 0.002,-10e-4 0.004,-10e-4 0.005,-0.003 0.007,-0.006 0.007,-0.018 0.012,-0.026 0.007,-0.013 0.018,-0.024 0.019,-0.041 v -0.003 0 0 l 0.002,-0.074 h 23.153 z m -23.296,0.026 c -0.017,0.018 -0.026,0.043 -0.027,0.07 v 0.004 0 0 l -0.041,1.223 c 0,0.002 10e-4,0.002 10e-4,0.004 0,0 -10e-4,0.002 -10e-4,0.003 l 0.075,2.277 c 0,0.001 0.002,0.001 0.002,0.003 0,0.002 -0.002,0.002 -0.002,0.004 l 0.225,2.265 c 0,0.002 10e-4,0.002 10e-4,0.004 0.001,0.002 -10e-4,0.002 -10e-4,0.004 l 0.371,2.248 c 0.001,0 0.002,0.002 0.002,0.002 0,0.002 0,0.002 0,0.004 l 0.518,2.219 c 0,0.002 0.002,0.002 0.002,0.004 0,0 -10e-4,0.002 0,0.002 l 0.66,2.182 c 0,0.002 0.002,0.002 0.002,0.004 v 0.002 l 0.803,2.133 0.002,0.002 c 0,0.002 0,0.002 0,0.004 l 0.94,2.074 c 0.001,0.002 0.002,0.002 0.003,0.004 0,0 0,0 0,0.002 l 1.074,2.01 c 0.001,0.002 0.002,0.002 0.003,0.004 0.001,0 0,0.002 0.001,0.002 l 1.203,1.934 c 10e-4,0 0.003,0 0.003,0.002 10e-4,0 10e-4,0.002 10e-4,0.004 l 1.326,1.852 c 0.001,0 0.002,0 0.003,0 0.001,0.002 0,0.004 0.001,0.004 l 1.445,1.764 c 10e-4,0 0.002,0 0.004,0.002 0,0 0,0.002 0.001,0.002 l 1.557,1.662 c 0.001,0.002 0.002,0.002 0.003,0.002 0.001,0 0,0.002 0.002,0.004 l 1.662,1.559 c 0.002,0 0.003,0 0.004,0 10e-4,0.002 0,0.004 0.002,0.004 l 1.762,1.443 c 0,0.002 0.002,0.002 0.004,0.002 0,0 0,0.002 0.001,0.002 l 1.747,1.252 -0.182,0.688 -0.081,-0.049 -1.896,-1.359 -1.801,-1.479 -1.699,-1.59 -1.592,-1.699 -1.479,-1.803 -1.355,-1.893 -1.23,-1.979 -1.096,-2.051 -0.963,-2.123 -0.819,-2.176 -0.677,-2.23 -0.527,-2.27 -0.38,-2.295 -0.229,-2.322 -0.074,-2.324 0.041,-1.301 h 0.695 z m -1.729,-0.174 c -0.001,0.002 -0.003,0.002 -0.005,0.002 -0.007,0.008 -0.007,0.02 -0.012,0.027 -0.008,0.014 -0.018,0.025 -0.019,0.041 v 0.004 0 0 l -0.003,0.073 h -6.804 v -0.147 z"
     id="path39"
     inkscape:connector-curvature="0"
     style="fill:#000000" /></svg>